# Blender v3.2.2 OBJ File: ''
# www.blender.org
mtllib section.mtl
o Cube_Cube.003
v -0.480000 -0.010000 0.480000
v -0.480000 0.010000 0.480000
v -0.480000 0.010000 -0.352300
v -0.480000 -0.010000 -0.352300
v 0.331871 0.010000 0.480000
v 0.331871 -0.010000 0.480000
v -0.453460 -0.010000 -0.184735
v 0.188579 -0.010000 0.457305
v -0.090189 -0.010000 0.315265
v -0.311421 -0.010000 0.094033
v -0.453460 0.010000 -0.184735
v -0.311421 0.010000 0.094033
v -0.090189 0.010000 0.315265
v 0.188579 0.010000 0.457305
vt 0.375000 0.000000
vt 0.625000 0.000000
vt 0.625000 0.216745
vt 0.375000 0.216745
vt 0.625000 1.000000
vt 0.375000 1.000000
vt 0.375000 0.788575
vt 0.625000 0.788575
vt 0.336425 0.750000
vt 0.125000 0.750000
vt 0.125000 0.533255
vt 0.131911 0.576892
vt 0.168901 0.649488
vt 0.226513 0.707100
vt 0.299109 0.744090
vt 0.875000 0.533255
vt 0.875000 0.750000
vt 0.663575 0.750000
vt 0.700891 0.744090
vt 0.773487 0.707100
vt 0.831099 0.649488
vt 0.868089 0.576892
vt 0.473185 0.875000
vt 0.473185 0.625000
vt 0.450000 0.625000
vt 0.450000 0.875000
vt 0.400000 0.625000
vt 0.400000 0.875000
vt 0.350000 0.625000
vt 0.350000 0.875000
vt 0.300000 0.625000
vt 0.300000 0.875000
vt 0.272887 0.625000
vt 0.272887 0.875000
vn -1.0000 0.0000 0.0000
vn 0.0000 0.0000 1.0000
vn 0.0000 -1.0000 0.0000
vn 0.0000 1.0000 0.0000
vn 0.1564 0.0000 -0.9877
vn 0.4540 0.0000 -0.8910
vn 0.7071 0.0000 -0.7071
vn 0.8910 0.0000 -0.4540
vn 0.9877 0.0000 -0.1564
usemtl (null)
s off
f 1/1/1 2/2/1 3/3/1 4/4/1
f 2/5/2 1/6/2 6/7/2 5/8/2
f 6/9/3 1/10/3 4/11/3 7/12/3 10/13/3 9/14/3 8/15/3
f 3/16/4 2/17/4 5/18/4 14/19/4 13/20/4 12/21/4 11/22/4
f 5/23/5 6/24/5 8/25/5 14/26/5
f 8/25/6 9/27/6 13/28/6 14/26/6
f 13/28/7 9/27/7 10/29/7 12/30/7
f 12/30/8 10/29/8 7/31/8 11/32/8
f 4/33/9 3/34/9 11/32/9 7/31/9
