<?xml version="1.0" encoding="UTF-8" standalone="no"?>
<svg
   viewBox="0 0 348 348"
   fill="none"
   version="1.1"
   id="svg35"
   sodipodi:docname="Simpleton Sections.svg"
   inkscape:version="1.2.2 (732a01da63, 2022-12-09)"
   xmlns:inkscape="http://www.inkscape.org/namespaces/inkscape"
   xmlns:sodipodi="http://sodipodi.sourceforge.net/DTD/sodipodi-0.dtd"
   xmlns="http://www.w3.org/2000/svg"
   xmlns:svg="http://www.w3.org/2000/svg">
  <defs
     id="defs39">
    <rect
       x="347.57457"
       y="197.58139"
       width="156.61939"
       height="92.164488"
       id="rect652" />
  </defs>
  <sodipodi:namedview
     id="namedview37"
     pagecolor="#ffffff"
     bordercolor="#000000"
     borderopacity="0.25"
     inkscape:showpageshadow="2"
     inkscape:pageopacity="0.0"
     inkscape:pagecheckerboard="0"
     inkscape:deskcolor="#d1d1d1"
     showgrid="false"
     inkscape:zoom="1.6600754"
     inkscape:cx="172.28133"
     inkscape:cy="169.57061"
     inkscape:window-width="1920"
     inkscape:window-height="1013"
     inkscape:window-x="-9"
     inkscape:window-y="-9"
     inkscape:window-maximized="1"
     inkscape:current-layer="svg35" />
  <path
     d="M5 6h337v337H5z"
     stroke-width="2"
     stroke="#000"
     id="path25" />
  <path
     d="M283 41c0-9 7-16 15-16 4 0 8 2 11 5s5 7 5 11c0 8-7 15-16 15-8 0-15-7-15-15z"
     stroke-width="2"
     stroke="#000"
     id="path27" />
  <circle
     cx="165.8"
     cy="179.5"
     r="138.8"
     fill="#fff"
     stroke="#000"
     stroke-width="2.5"
     id="circle29" />
  <g
     aria-label="PUSH IT!"
     style="line-height:1.25;-inkscape-font-specification:'Special Elite'"
     font-weight="700"
     font-size="58.4"
     font-family="Special Elite"
     letter-spacing="0"
     word-spacing="0"
     fill="#000"
     stroke-width="1.8"
     id="g33">
    <path
       d="M53 165v1l-1-1h1zm8 21v-1 1zm20-14v5l-1 1-1 2-1 1h-1l-1 1-4 2h-4-1-1-1-1l-1 1h-1l-1 1h2v1l-1 1v7l1 2h1l2 1v1h1l1 1-1 1v1H54l-1-1 1-2 1-1h1l1-1h1v-1-1-1-1-1-1-1-3-2-1-1-1-1-1-1-1-1-1-1-1-1-2-2-1h1l1-1h-1-2v-1h-1v-1h-1l-1 1v-1-1h-1l1-1 1-1h15l2 1h2l1 1h1l1 1 1 1h1v1l1 1v1h1v3zm-4 2l-1-3-1-3-3-1-3-1h-5l-1 1h-1l-1 1v1l1 1v5h-1v1l1 2 1 1h1l1 1h1l2-1h4v-1h3l1-1 1-1v-2zM119 163l-1 1-1 1h-1l-1 1h-2v2l-1 1-1 1 1 1v5l1 2h-1v3l1 3v2l-1 1v1l1 1v2l-1 2v1l-2 1v1l1 1h-1v1h-1v1h-1v1h-1l-1 1h-1l-2 1h-3l-1-1h-1-2-1l-1-1h-1l-1-1-1-1v-2l-1-2v-2-2l-1-2v-1-1-3l1-2-1-4v-3-1l1-1v-1-1l-1-1v-2-1l-1-1-2-1h-1l-1-1 1-1 1-1h10l2 1v2l-1 1-1 1-2 1v2l-1 1v14l-1 1h1v-1 1h1v7l1 1v1l1 1 1 1 1 1h1l1 1 1 1v1l1-1h1v1h1v-1-1h-1v-1h1l1-1h1l1-1v-1l1-1v-2-1-1l1-1-1-2v-1-1l1-1-1-1v-2-2l1-2-1-3v-2-1-1h1l-1-1h-1v-1-1h-1-1l-1-1h-1v-1l-1-2h1v-1h7l1-1 1 1h4l1 1h1v1h1zM151 188v5h-2v1h1v1l-1 1-1 1v1h-3v2h-2l-1 1h-2l-2 1-3 1-2-1h-1l-2-1h-2-1-1v1h-1l-1-1-1-1-1-2v-1-1l1-1-1-1v-2-1l1-1h-1v-1l1-1v-1-1-1l1 1 1 1 1 2v5l1 1h1l2 1 1 2h8l2-1 1-1 1-1 1-1h1l1-1v-1l1-1v-2-2l-1-1-1-1h-1l-1-1-1-1h-3l-1-1-1 1h-1l-1-1h-1-1-1l-1-1h-1l-3-2-1-1v-1h-1v-1l-1-1v-2l-1-1 1-1v-1-1h0v-1l1-1 1-1 1-1 1-1 1-1h2l1-1h9l1 1h2v-1h3v2l1 1v4h1l-1 1v6h-1-1v-1l-1-1v-1-1l-1-1-1-1v-1l-1-1h-1l-1-1h-1-1-1l-1-1-2 1h-1l-2 1-2 1v5l1 2 1 1h1l2 1h4l1 1h5v1h2l1 1 1 1 1 1v1l1 1v1h1v2zM190 200v1h-2l-1 1h-3-3l-1 1h-2v-1h-2l-1-1v-1l1-1 1-1h2l1 1v-1-1h1v-1-2-1-1-1-1-1-1-1-1l-1-1v-1l-1-1h-4-2-1l-1 1h-2-2l-1 1v4l-1 1v1l1 1-1 1v1l1 1v1l1 1 1 1h1l2 1v3h-1l-1 1h-1l-1-1-4 1h-3-1l-1-1h-2v-1-1-1h1v-1h2l1-1 1-1 1-2v-2-1-1-1-2l-1-3 1-1v-1l-1-1v-1-1l1-1v-1-1-1-1-1-1h-1v-1h1v-1-1l-1-1v-1h-1l-1-1h-2l-1-1v-1-1l1-1h12v1l1 1v1h-1-1l-2 1-1 1v4l1 2-1 2v1l1 2 1 1h7l1 1h3v-1h2v-1l1-1v-1-1-1l-1-1v-1-1-1-1-2l-1-1h-3l-1-1-1-1v-1l1-1h12l2 1v2l-1 1h-2l-1 1h-1v20l1 2-1 1v1l1 1-1 2v1l1 1v1l1 1h1l1 1h2v1zM236 164v1h-1v1h-1-1-1-1-2-1v1l-1 1h-1v28l1 1h1l1 1 3-1h2l1 1 1 1v2l-1 1-1 1h-16l-1-1h-1l-1 1h-1-1l-2-1-1-1 1-1v-1l1-1 1-1v1h4l2-1 2-1 1-2-1-1v-1-3-3-2l1-2-1-1v-1-1-1-1-2l1-2-1-1v-2-1-1-1h-1v-1h-1l-1-1v1h-1l-1 1h-2-1l-1-1h-1l-1-1 1-1v-1l1-1 1-1h11v-1l1 1h2v-1l1 1v1l1-1h1l1 1h1l-1-1h1l1-1v1h2v2h1v1zm-14 2v-1h-1v2h1v-1zM271 172v2l-1 1-1 1h-1v-1-1h-1v-1l-1-1v-1-1l-1-2 1-1v-1-1l-1-1h-4-1l-2 1h-1v10l1 2v2l-1 3 1 1v5h-1l1 1v1l-1 1 1 1v2l1 1 1 1h4l1 1v3h-1v1l-1-1h-1l-3 1h-3l-3 1h-3-1l-1-1h-2v-1-1-1h2l-1-1h3l1-1h2v-1-1l1-1-1-3v-2-1l1-1-1-1v-1-1-2-1-1-4-4-5-1h-1l-2-1h-4l-1 1-2 1v8h-1v2h-1-1v-1-1-1-1-1-1-1l-1-2v-2l1-2 1-2h27l2 1v6l1 2v2zM285 169l-1 1v5l-1 1v9l-1 1v2h1l-1 1v1l-1 1h-1l-1-1v-1-1-1-2-1-1l-1-1v-1-3-2-3-2l-1-2v-2-1l1-1v-2l1-1 1-1h2v1h1l1 1v5l1 1zm-2 29v2l-1 1-1 1h-2l-1-1-1-1v-2l1-2 3-1h1l1 1v2z"
       id="path31" />
  </g>
  <rect
     style="fill:#000000;stroke-width:0.787195"
     id="rect383"
     width="3.408"
     height="33.330002"
     x="163.77724"
     y="6.3892288" />
  <rect
     style="fill:#000000;stroke-width:0.674398"
     id="rect383-1"
     width="3.408"
     height="24.462595"
     x="163.77699"
     y="318.47906" />
  <rect
     style="fill:#000000"
     id="rect386"
     width="20.445532"
     height="3.4075887"
     x="5.9632802"
     y="175.91676" />
  <rect
     style="fill:#000000;stroke-width:1.34436"
     id="rect386-4"
     width="36.951038"
     height="3.4075887"
     x="304.82315"
     y="175.91701" />
  <text
     xml:space="preserve"
     style="font-size:60px;fill:#000000;-inkscape-font-specification:'Special Elite';font-family:'Special Elite';font-weight:normal;font-style:normal;font-stretch:normal;font-variant:normal"
     x="50.600109"
     y="56.021553"
     id="text540"><tspan
       sodipodi:role="line"
       id="tspan538"
       x="50.600109"
       y="56.021553"
       style="font-style:normal;font-variant:normal;font-weight:normal;font-stretch:normal;font-family:'Special Elite';-inkscape-font-specification:'Special Elite';font-size:60px" /></text>
  <text
     xml:space="preserve"
     style="font-style:normal;font-variant:normal;font-weight:normal;font-stretch:normal;font-size:53.3333px;font-family:'Special Elite';-inkscape-font-specification:'Special Elite';fill:#000000"
     x="24.396482"
     y="75.297783"
     id="text594"><tspan
       sodipodi:role="line"
       id="tspan592"
       x="24.396482"
       y="75.297783"
       style="font-size:53.3333px">1</tspan></text>
  <text
     xml:space="preserve"
     style="font-style:normal;font-variant:normal;font-weight:normal;font-stretch:normal;font-size:53.3333px;font-family:'Special Elite';-inkscape-font-specification:'Special Elite';fill:#000000"
     x="27.470203"
     y="318.53967"
     id="text594-4"><tspan
       sodipodi:role="line"
       id="tspan592-4"
       x="27.470203"
       y="318.53967"
       style="font-size:53.3333px">2</tspan></text>
  <text
     xml:space="preserve"
     style="font-style:normal;font-variant:normal;font-weight:normal;font-stretch:normal;font-size:53.3333px;font-family:'Special Elite';-inkscape-font-specification:'Special Elite';fill:#000000"
     x="288.3721"
     y="317.32874"
     id="text594-4-2"><tspan
       sodipodi:role="line"
       id="tspan592-4-3"
       x="288.3721"
       y="317.32874"
       style="font-size:53.3333px">3   </tspan></text>
  <text
     xml:space="preserve"
     style="font-style:normal;font-variant:normal;font-weight:normal;font-stretch:normal;font-size:53.3333px;font-family:'Special Elite';-inkscape-font-specification:'Special Elite';fill:#000000"
     x="151.44455"
     y="268.42957"
     id="text594-4-2-7"><tspan
       sodipodi:role="line"
       id="tspan592-4-3-2"
       x="151.44455"
       y="268.42957"
       style="font-size:53.3333px">4 </tspan></text>
  <text
     xml:space="preserve"
     id="text650"
     style="fill:#000000;-inkscape-font-specification:'Special Elite';font-family:'Special Elite';font-weight:normal;font-style:normal;font-stretch:normal;font-variant:normal;font-size:53.33333333px;white-space:pre;shape-inside:url(#rect652)" />
</svg>
